<mxfile host="app.diagrams.net" agent="Mozilla/5.0 (Windows NT 10.0; Win64; x64) AppleWebKit/537.36 (KHTML, like Gecko) Chrome/134.0.0.0 Safari/537.36" version="26.2.8">
  <diagram name="Page-1" id="7e0a89b8-554c-2b80-1dc8-d5c74ca68de4">
    <mxGraphModel dx="654" dy="388" grid="1" gridSize="10" guides="1" tooltips="1" connect="1" arrows="1" fold="1" page="1" pageScale="1" pageWidth="1100" pageHeight="850" background="none" math="0" shadow="0">
      <root>
        <mxCell id="0" />
        <mxCell id="1" parent="0" />
        <mxCell id="W79n-Oxr2ZgM0roB26U3-4" style="edgeStyle=orthogonalEdgeStyle;rounded=0;orthogonalLoop=1;jettySize=auto;html=1;entryX=0.5;entryY=1;entryDx=0;entryDy=0;exitX=0.5;exitY=0;exitDx=0;exitDy=0;strokeColor=none;endArrow=oval;endFill=1;" edge="1" parent="1" source="W79n-Oxr2ZgM0roB26U3-1" target="W79n-Oxr2ZgM0roB26U3-2">
          <mxGeometry relative="1" as="geometry" />
        </mxCell>
        <mxCell id="W79n-Oxr2ZgM0roB26U3-6" style="edgeStyle=orthogonalEdgeStyle;rounded=0;orthogonalLoop=1;jettySize=auto;html=1;entryX=0.5;entryY=1;entryDx=0;entryDy=0;exitX=0.5;exitY=0;exitDx=0;exitDy=0;endArrow=oval;endFill=1;startArrow=oval;startFill=1;" edge="1" parent="1" source="W79n-Oxr2ZgM0roB26U3-1" target="W79n-Oxr2ZgM0roB26U3-2">
          <mxGeometry relative="1" as="geometry">
            <mxPoint x="320" y="360" as="sourcePoint" />
          </mxGeometry>
        </mxCell>
        <mxCell id="W79n-Oxr2ZgM0roB26U3-1" value="6V&amp;nbsp;" style="image;html=1;image=img/lib/clip_art/general/Battery_100_128x128.png" vertex="1" parent="1">
          <mxGeometry x="280" y="370" width="80" height="80" as="geometry" />
        </mxCell>
        <mxCell id="W79n-Oxr2ZgM0roB26U3-2" value="6V" style="image;html=1;image=img/lib/clip_art/general/Battery_100_128x128.png" vertex="1" parent="1">
          <mxGeometry x="430" y="370" width="80" height="80" as="geometry" />
        </mxCell>
        <mxCell id="W79n-Oxr2ZgM0roB26U3-11" style="edgeStyle=orthogonalEdgeStyle;rounded=0;orthogonalLoop=1;jettySize=auto;html=1;endArrow=oval;endFill=1;startArrow=oval;startFill=1;exitX=0.5;exitY=0;exitDx=0;exitDy=0;exitPerimeter=0;" edge="1" parent="1" source="W79n-Oxr2ZgM0roB26U3-5">
          <mxGeometry relative="1" as="geometry">
            <mxPoint x="190" y="410" as="targetPoint" />
            <Array as="points">
              <mxPoint x="600" y="210" />
              <mxPoint x="190" y="210" />
            </Array>
          </mxGeometry>
        </mxCell>
        <mxCell id="W79n-Oxr2ZgM0roB26U3-17" style="edgeStyle=orthogonalEdgeStyle;rounded=0;orthogonalLoop=1;jettySize=auto;html=1;entryX=0.5;entryY=0;entryDx=0;entryDy=0;exitX=0.5;exitY=1;exitDx=0;exitDy=0;exitPerimeter=0;endArrow=oval;endFill=1;startArrow=oval;startFill=1;" edge="1" parent="1" source="W79n-Oxr2ZgM0roB26U3-5" target="W79n-Oxr2ZgM0roB26U3-12">
          <mxGeometry relative="1" as="geometry" />
        </mxCell>
        <mxCell id="W79n-Oxr2ZgM0roB26U3-5" value="" style="pointerEvents=1;verticalLabelPosition=bottom;shadow=0;dashed=0;align=center;html=1;verticalAlign=top;shape=mxgraph.electrical.signal_sources.source;aspect=fixed;points=[[0.5,0,0],[1,0.5,0],[0.5,1,0],[0,0.5,0]];elSignalType=dc2;" vertex="1" parent="1">
          <mxGeometry x="570" y="250" width="60" height="60" as="geometry" />
        </mxCell>
        <mxCell id="W79n-Oxr2ZgM0roB26U3-9" value="" style="pointerEvents=1;verticalLabelPosition=bottom;shadow=0;dashed=0;align=center;html=1;verticalAlign=top;shape=mxgraph.electrical.signal_sources.signal_ground;" vertex="1" parent="1">
          <mxGeometry x="130" y="430" width="45" height="30" as="geometry" />
        </mxCell>
        <mxCell id="W79n-Oxr2ZgM0roB26U3-10" style="edgeStyle=orthogonalEdgeStyle;rounded=0;orthogonalLoop=1;jettySize=auto;html=1;entryX=0.5;entryY=0;entryDx=0;entryDy=0;entryPerimeter=0;exitX=0.5;exitY=1;exitDx=0;exitDy=0;endArrow=oval;endFill=1;startArrow=oval;startFill=1;" edge="1" parent="1" source="W79n-Oxr2ZgM0roB26U3-1" target="W79n-Oxr2ZgM0roB26U3-9">
          <mxGeometry relative="1" as="geometry" />
        </mxCell>
        <mxCell id="W79n-Oxr2ZgM0roB26U3-14" style="edgeStyle=orthogonalEdgeStyle;rounded=0;orthogonalLoop=1;jettySize=auto;html=1;endArrow=oval;endFill=1;startArrow=oval;startFill=1;entryX=0.95;entryY=0.531;entryDx=0;entryDy=0;entryPerimeter=0;" edge="1" parent="1" source="W79n-Oxr2ZgM0roB26U3-12" target="W79n-Oxr2ZgM0roB26U3-15">
          <mxGeometry relative="1" as="geometry">
            <mxPoint x="550" y="410" as="targetPoint" />
          </mxGeometry>
        </mxCell>
        <mxCell id="W79n-Oxr2ZgM0roB26U3-21" style="edgeStyle=orthogonalEdgeStyle;rounded=0;orthogonalLoop=1;jettySize=auto;html=1;exitX=1;exitY=0;exitDx=0;exitDy=0;startArrow=oval;startFill=1;endArrow=oval;endFill=1;entryX=0;entryY=0.84;entryDx=0;entryDy=0;" edge="1" parent="1" source="W79n-Oxr2ZgM0roB26U3-12" target="W79n-Oxr2ZgM0roB26U3-20">
          <mxGeometry relative="1" as="geometry">
            <Array as="points">
              <mxPoint x="770" y="330" />
              <mxPoint x="840" y="330" />
            </Array>
          </mxGeometry>
        </mxCell>
        <mxCell id="W79n-Oxr2ZgM0roB26U3-12" value="Control Board" style="strokeColor=#dddddd;shadow=1;strokeWidth=1;rounded=1;absoluteArcSize=1;arcSize=2;labelPosition=center;verticalLabelPosition=middle;align=center;verticalAlign=bottom;spacingLeft=0;fontColor=#999999;fontSize=12;whiteSpace=wrap;spacingBottom=2;html=1;" vertex="1" parent="1">
          <mxGeometry x="700" y="360" width="70" height="100" as="geometry" />
        </mxCell>
        <mxCell id="W79n-Oxr2ZgM0roB26U3-13" value="" style="sketch=0;dashed=0;connectable=0;html=1;fillColor=#757575;strokeColor=none;shape=mxgraph.gcp2.circuit_board;part=1;" vertex="1" parent="W79n-Oxr2ZgM0roB26U3-12">
          <mxGeometry x="0.5" width="50" height="45" relative="1" as="geometry">
            <mxPoint x="-25" y="12.5" as="offset" />
          </mxGeometry>
        </mxCell>
        <mxCell id="W79n-Oxr2ZgM0roB26U3-16" style="edgeStyle=orthogonalEdgeStyle;rounded=0;orthogonalLoop=1;jettySize=auto;html=1;entryX=0.5;entryY=0;entryDx=0;entryDy=0;endArrow=oval;endFill=1;startArrow=oval;startFill=1;" edge="1" parent="1" source="W79n-Oxr2ZgM0roB26U3-15" target="W79n-Oxr2ZgM0roB26U3-2">
          <mxGeometry relative="1" as="geometry" />
        </mxCell>
        <mxCell id="W79n-Oxr2ZgM0roB26U3-15" value="Reset Relay Fuse" style="pointerEvents=1;verticalLabelPosition=bottom;shadow=0;dashed=0;align=center;html=1;verticalAlign=top;shape=mxgraph.electrical.miscellaneous.fuse_1;" vertex="1" parent="1">
          <mxGeometry x="540" y="400" width="100" height="20" as="geometry" />
        </mxCell>
        <mxCell id="W79n-Oxr2ZgM0roB26U3-22" style="edgeStyle=orthogonalEdgeStyle;rounded=0;orthogonalLoop=1;jettySize=auto;html=1;exitX=1;exitY=0.84;exitDx=0;exitDy=0;entryX=1;entryY=0.75;entryDx=0;entryDy=0;endArrow=oval;endFill=1;startArrow=oval;startFill=1;" edge="1" parent="1" source="W79n-Oxr2ZgM0roB26U3-20" target="W79n-Oxr2ZgM0roB26U3-12">
          <mxGeometry relative="1" as="geometry" />
        </mxCell>
        <mxCell id="W79n-Oxr2ZgM0roB26U3-20" value="Power Switch" style="html=1;shape=mxgraph.electrical.electro-mechanical.switchDisconnector;aspect=fixed;elSwitchState=off;labelPosition=center;verticalLabelPosition=bottom;align=center;verticalAlign=top;" vertex="1" parent="1">
          <mxGeometry x="870" y="340" width="75" height="20" as="geometry" />
        </mxCell>
      </root>
    </mxGraphModel>
  </diagram>
</mxfile>
